


Format                           : AVI
Format/Info                      : Audio Video Interleave
File size                        : 1 002 MiB
Duration                         : 2h 2mn
Overall bit rate                 : 1 146 Kbps
Writing library                  : VirtualDub build 32842/release

Video
ID                               : 0
Format                           : MPEG-4 Visual
Format profile                   : Advanced Simple@L5
Format settings, BVOP            : 2
Format settings, QPel            : No
Format settings, GMC             : No warppoints
Format settings, Matrix          : Default (H.263)
Muxing mode                      : Packed bitstream
Codec ID                         : XVID
Codec ID/Hint                    : XviD
Duration                         : 2h 2mn
Bit rate                         : 1 005 Kbps
Width                            : 632 pixels
Height                           : 282 pixels
Display aspect ratio             : 2.25:1
Frame rate                       : 29.970 fps
Color space                      : YUV
Chroma subsampling               : 4:2:0
Bit depth                        : 8 bits
Scan type                        : Progressive
Compression mode                 : Lossy
Bits/(Pixel*Frame)               : 0.188
Stream size                      : 879 MiB (88%)
Writing library                  : XviD 64

Audio
ID                               : 1
Format                           : MPEG Audio
Format version                   : Version 1
Format profile                   : Layer 3
Mode                             : Joint stereo
Mode extension                   : MS Stereo
Codec ID                         : 55
Codec ID/Hint                    : MP3
Duration                         : 2h 2mn
Bit rate mode                    : Constant
Bit rate                         : 128 Kbps
Channel(s)                       : 2 channels
Sampling rate                    : 44.1 KHz
Compression mode                 : Lossy
Stream size                      : 112 MiB (11%)
Alignment                        : Aligned on interleaves
Interleave, duration             : 26 ms (0.78 video frame)
Interleave, preload duration     : 522 ms
Writing library                  : LAME3.98.2






 
http://www.imdb.com/title/tt0968264/




[IMG]http://leetleech.org/images/89524873606771859129.png[/IMG]


Users:  (1,614 votes) 61 reviews | Critics: 96 reviews Metascore: 55/100 (based on 37 reviews from Metacritic.com) 


Mary Surratt is the lone female charged as a co-conspirator in the assassination trial of Abraham Lincoln. As the whole nation turns against her, she is forced to rely on her reluctant lawyer to uncover the truth and save her life. 

 Director: Robert Redford
 Writers: James D. Solomon (screenplay), James D. Solomon (story),  and 1 more credit » 
Stars: Robin Wright, James McAvoy and Tom Wilkinson







 
http://leetleech.org/images/84280466083771294198.png
 
http://leetleech.org/images/24656813657319060410.png
 
http://leetleech.org/images/07603375345643157298.png
 
http://leetleech.org/images/48087827298076460946.png




Source Used 



IFLiX ................Thanks



Just cropped black borders,resized few filters to be honest i hate doing ppvs but done it anyway so



Enjoy





Greetz to IMAGiNE,Flawl3ss,DiLLoN,BDK,NOiR,TOXiC,THC,Ez,Rx,Boobyblue,TaRiQ786,BHRG







